<?xml version="1.0" encoding="UTF-8" standalone="no"?><!DOCTYPE svg PUBLIC "-//W3C//DTD SVG 1.1//EN" "http://www.w3.org/Graphics/SVG/1.1/DTD/svg11.dtd"><svg width="100%" height="100%" viewBox="0 0 209 209" version="1.1" xmlns="http://www.w3.org/2000/svg" xmlns:xlink="http://www.w3.org/1999/xlink" xml:space="preserve" xmlns:serif="http://www.serif.com/" style="fill-rule:evenodd;clip-rule:evenodd;stroke-linejoin:round;stroke-miterlimit:2;"><path d="M99.427,6.43c-4.155,2.374 -2.733,9.672 -2.733,13.667c-0,10.721 -2.644,24.568 -0.419,34.922c1.127,5.244 7.037,7.177 11.555,4.798c4.532,-2.387 4.019,-7.682 4.02,-12.044c0,-11.103 2.916,-26.96 -0.476,-37.531c-1.443,-4.498 -8.01,-6.061 -11.947,-3.812Z" style="fill:#8e562e;fill-rule:nonzero;"/><path d="M138.207,33.05c-7.633,1.118 -19.827,3.385 -25.157,9.555c-4.506,5.218 2.278,16.971 -9.108,17.558c-9.364,0.482 -5.445,-10.714 -10.214,-12.601c-12.082,-4.779 -29.612,1.7 -42.501,-0.796c-5.852,-1.133 -16.265,-7.384 -21.746,-6.144c-5.532,1.251 -11.357,7.186 -15.007,11.224c-29.479,32.605 1.208,73.484 17.139,104.77c6.468,12.703 11.291,30.58 24.227,38.18c9.9,5.817 23.454,7.393 34.264,3.184c3.99,-1.553 9.751,-7.491 13.838,-7.434c3.408,0.048 7.421,4.828 10.543,6.289c7.037,3.292 15.41,4.008 23.063,2.971c24.358,-3.302 31.473,-28.709 41.02,-47.802c9.727,-19.456 25.166,-41.279 27.363,-63.259c3.622,-36.254 -34.761,-60.521 -67.724,-55.695Z" style="fill:#f03a17;fill-rule:nonzero;"/><path d="M51.227,46.573c11.136,3.772 44.139,-7.117 44.149,8.566c0.665,-1.963 1.627,-6.654 -0.542,-8.025c-2.714,-1.717 -8.859,-0.541 -11.978,-0.541l-31.629,-0Z" style="fill:#d94416;fill-rule:nonzero;"/><path d="M47.932,61.415c-39.489,6.99 -21.644,61.09 15.156,54.579c20.21,-3.576 33.073,-27.434 18.834,-44.369c-8.072,-9.6 -22.075,-12.319 -33.99,-10.21Z" style="fill:#ef6950;fill-rule:nonzero;"/><path d="M12.525,14.419c-5.889,5.917 7.279,23.078 11.042,26.832c14.844,14.81 34.744,13.192 54.022,13.192c3.918,0 16.085,2.023 18.938,-0.83c7.27,-7.27 -1.547,-26.626 -7.736,-30.964c-16.897,-11.843 -37.132,-9.06 -56.67,-9.06c-4.014,-0 -16.689,-2.091 -19.596,0.83Z" style="fill:#13a10e;fill-rule:nonzero;"/></svg>