<?xml version="1.0" encoding="UTF-8" standalone="no"?><!DOCTYPE svg PUBLIC "-//W3C//DTD SVG 1.1//EN" "http://www.w3.org/Graphics/SVG/1.1/DTD/svg11.dtd"><svg width="100%" height="100%" viewBox="0 0 834 834" version="1.1" xmlns="http://www.w3.org/2000/svg" xmlns:xlink="http://www.w3.org/1999/xlink" xml:space="preserve" xmlns:serif="http://www.serif.com/" style="fill-rule:evenodd;clip-rule:evenodd;stroke-linejoin:round;stroke-miterlimit:2;"><path d="M298.803,456.66c5.744,-27.268 12.818,-54.441 20.039,-81.356c4.679,-17.44 12.456,-37.448 5.784,-55.312c-13.063,-34.978 -58.113,-43.448 -83.113,-15.806c-17.786,19.664 -26.11,50.142 -35.781,74.372c-24.819,62.182 -44.946,125.558 -54.274,192c-2.209,15.737 -17.919,78.668 -4.288,87.243c25.605,16.105 30.809,-51.788 31.227,-64.464c2.402,-73.015 30.83,-148.237 59.044,-214.779c7.222,-17.032 16.686,-58.004 38.669,-61.248c19.164,-2.829 22.67,18.392 19.691,31.96c-9.364,42.639 -22.425,84.506 -32.794,126.915c-2.729,11.162 -13.344,52.182 13.064,41.488c25.334,-10.257 49.194,-45.172 68.292,-64.268l152.949,-152.949c17.306,-17.305 55.491,-72.129 84.574,-58.044c41.762,20.227 7.062,54.248 -12.981,74.315l-123.661,123.661c-10.118,10.118 -40.167,31.309 -36.015,48.108c3.811,15.402 22.181,5.988 29.506,-0c20.649,-16.873 51.71,-54.606 73.673,-15.334c24.338,43.522 -77.952,70.158 -58.84,105.453c7.283,13.444 23.519,1.269 30.727,-5.135c18.064,-16.043 40.017,-45.972 64.46,-21.8c44.937,44.443 -69.735,72.176 -52.228,111.907c11.927,27.065 65.193,-45.547 78.883,4.699c5.148,18.9 -19.678,34.452 -32.539,43.255c-39.65,27.131 -80.786,48.543 -126.915,62.185c-10.16,3.007 -56.533,16.242 -36.669,34.694c12.555,11.666 52.094,-8.689 65.957,-13.32c48.423,-16.173 112.235,-43.971 144.973,-84.701c26.515,-32.988 14.156,-73.689 -24.566,-87.773c29.616,-35.921 28.282,-97.657 -26.034,-107.39c6.528,-35.956 3.43,-75.892 -39.051,-84.61c24.446,-33.583 58.527,-61.772 87.864,-91.119c18.689,-18.695 39.829,-36.955 41.863,-65.085c3.413,-47.242 -45.999,-76.384 -87.422,-55.673c-31.329,15.664 -56.874,50.718 -81.356,75.199l-162.712,162.712Z" style="fill-rule:nonzero;"/><path d="M481.109,110.231c-92.175,8.863 -186.473,36.625 -267.82,81.059c-11.853,6.474 -100.707,52.662 -61.863,70.901c21.778,10.226 73.759,-35.462 93.304,-45.68c73.596,-38.476 160.913,-69.411 244.77,-69.731c-8.328,12.008 -17.02,23.607 -26.167,35.008c-6.997,8.722 -46.351,72.927 -3.642,57.223c24.639,-9.06 94.071,-91.697 88.748,-118.602c-5.126,-25.883 -82.808,-83.829 -107.829,-89.838c-43.199,-10.37 -6.426,39.77 5.316,49.261c12.141,9.808 24.052,19.458 35.183,30.399Z" style="fill-rule:nonzero;"/></svg>